<?xml version="1.0" encoding="utf-8"?>
<!-- Generator: Adobe Illustrator 23.0.3, SVG Export Plug-In . SVG Version: 6.00 Build 0)  -->
<svg version="1.1" id="Capa_1" xmlns="http://www.w3.org/2000/svg" xmlns:xlink="http://www.w3.org/1999/xlink" x="0px" y="0px"
	 viewBox="0 0 1200 1200" enable-background="new 0 0 1200 1200" xml:space="preserve">
<g>
	<path fill="#3B9F97" d="M686.117,146.899l14.497-72.196c1.228-6.123,7.192-10.112,13.345-8.88c6.127,1.23,10.109,7.218,8.88,13.343
		l-14.501,72.196c-1.228,6.125-7.18,10.114-13.345,8.88C688.866,159.009,684.885,153.023,686.117,146.899z M477.111,1022.845
		c-0.768-0.156-1.544-0.236-2.312-0.236c-2.191,0-4.332,0.635-6.203,1.867c-2.533,1.666-4.263,4.214-4.876,7.18l-18.825,91.11
		c-0.612,2.963-0.03,5.986,1.632,8.515c1.662,2.533,4.21,4.263,7.176,4.875c6.1,1.232,12.124-2.689,13.394-8.808l18.821-91.11
		C487.182,1030.121,483.23,1024.112,477.111,1022.845z M785.685,191.347c0.753,0.329,1.533,0.576,2.316,0.732
		c5.21,1.038,10.481-1.725,12.607-6.577v0.002l30.155-68.927c1.213-2.774,1.278-5.855,0.175-8.673
		c-1.103-2.82-3.24-5.041-6.013-6.254c-1.46-0.641-3.001-0.96-4.545-0.96c-1.392,0-2.784,0.259-4.119,0.782
		c-2.826,1.103-5.047,3.24-6.264,6.018l-30.158,68.933c-1.213,2.774-1.274,5.855-0.171,8.673
		C780.775,187.913,782.909,190.134,785.685,191.347z M868.417,224.145c-3.4,5.241-1.905,12.274,3.335,15.676
		c1.213,0.787,2.537,1.329,3.936,1.611c4.586,0.932,9.188-1.017,11.74-4.942l44.093-67.896c3.4-5.241,1.905-12.274-3.335-15.676
		c-1.86-1.209-3.986-1.835-6.15-1.835c-0.791,0-1.586,0.084-2.377,0.251c-2.963,0.629-5.499,2.375-7.15,4.915L868.417,224.145z
		 M940.592,296.557c-4.282,4.547-4.073,11.734,0.472,16.02c1.544,1.455,3.457,2.445,5.534,2.862
		c3.879,0.78,7.792-0.472,10.489-3.333c19.411-20.586,40.233-40.299,61.891-58.592c2.312-1.953,3.727-4.689,3.982-7.705
		c0.251-3.016-0.685-5.952-2.636-8.264c-1.955-2.316-4.693-3.731-7.713-3.984c-0.323-0.029-0.646-0.042-0.966-0.042
		c-2.67,0-5.229,0.934-7.291,2.679C982.072,255.012,960.623,275.321,940.592,296.557z M987.119,382.668
		c-4.799,3.995-5.457,11.156-1.464,15.96c1.346,1.62,3.111,2.829,5.1,3.495c3.746,1.261,7.815,0.504,10.862-2.025
		c3.37-2.803,7.355-5.208,11.573-7.754l65.938-39.754c2.594-1.563,4.423-4.041,5.153-6.981c0.73-2.936,0.27-5.982-1.293-8.574
		c-1.571-2.598-4.05-4.431-6.99-5.157c-0.909-0.224-1.825-0.337-2.738-0.337c-2.038,0-4.039,0.553-5.826,1.633l-65.979,39.778
		C996.702,375.823,991.789,378.791,987.119,382.668z M584.175,152.567c2.97,0.548,5.986-0.116,8.473-1.844
		c2.487-1.729,4.149-4.32,4.685-7.3l14.425-80.11c1.088-6.03-2.913-11.913-8.918-13.119C602.118,50.063,601.4,50,600.696,50
		c-5.511,0-10.261,3.843-11.242,9.297l-14.425,80.108c-1.084,6.03,2.917,11.915,8.918,13.121l-0.118,1.958v0L584.175,152.567z
		 M503.6,154.708l-17.171-86.092c-0.593-2.966-2.308-5.528-4.83-7.209c-1.886-1.257-4.054-1.909-6.264-1.909
		c-0.745,0-1.495,0.074-2.24,0.222c-6.131,1.225-10.12,7.205-8.899,13.334l17.175,86.092c0.898,4.501,4.385,7.992,8.888,8.895
		c1.46,0.297,2.963,0.297,4.446,0c2.97-0.593,5.53-2.307,7.211-4.824C503.596,160.698,504.193,157.676,503.6,154.708z
		 M416.399,179.753l-28.74-73.013c-1.111-2.816-3.248-5.031-6.028-6.239c-1.449-0.631-2.982-0.947-4.518-0.947
		c-1.403,0-2.807,0.262-4.149,0.793c-2.818,1.109-5.035,3.248-6.245,6.024c-1.206,2.776-1.259,5.855-0.152,8.673l28.736,73.013
		c1.415,3.596,4.53,6.197,8.329,6.962c2.13,0.428,4.335,0.232,6.374-0.569C415.817,192.163,418.685,185.57,416.399,179.753z
		 M70.585,603.482c1.978,2.291,4.731,3.676,7.751,3.892l78.256,5.712c3.879,0.331,7.545-1.396,9.88-4.488
		c1.312-1.742,2.088-3.815,2.244-5.988c0-0.002,0-0.002,0-0.004c0.224-3.018-0.745-5.942-2.723-8.232
		c-1.978-2.291-4.731-3.674-7.751-3.894l-78.26-5.714c-0.281-0.021-0.563-0.03-0.844-0.03c-2.715,0-5.313,0.964-7.389,2.759
		c-2.289,1.981-3.674,4.733-3.891,7.751C67.634,598.268,68.604,601.191,70.585,603.482z M267.376,138.872
		c-1.019,2.85-0.871,5.927,0.426,8.663c13.204,27.956,27.188,55.995,41.556,83.337c1.59,3.037,4.434,5.165,7.808,5.842
		c2.552,0.515,5.206,0.129,7.492-1.08c0.004,0,0.004,0,0.004,0c2.677-1.409,4.651-3.776,5.549-6.667
		c0.898-2.89,0.616-5.958-0.791-8.635c-14.178-26.985-28.017-54.734-41.13-82.477c-1.289-2.74-3.571-4.809-6.423-5.83
		c-1.247-0.447-2.537-0.669-3.826-0.669c-1.651,0-3.297,0.367-4.834,1.093C270.467,133.744,268.399,136.024,267.376,138.872z
		 M172.835,248.705c23.263,20.449,47.957,39.771,73.403,57.426c1.361,0.945,2.875,1.569,4.499,1.852
		c4.324,0.757,8.758-1.086,11.276-4.706c3.556-5.134,2.274-12.208-2.86-15.773c-24.739-17.167-48.744-35.949-71.346-55.822
		c-2.145-1.89-4.815-2.818-7.473-2.818c-3.149,0-6.283,1.301-8.526,3.845C167.686,237.4,168.146,244.577,172.835,248.705z
		 M124.099,360.492l76.046,37.021c1.149,0.561,2.366,0.92,3.624,1.069c4.727,0.572,9.416-1.959,11.527-6.294
		c1.323-2.723,1.51-5.8,0.525-8.66c-0.989-2.86-3.031-5.166-5.754-6.49l-76.042-37.023c-1.574-0.768-3.267-1.156-4.963-1.156
		c-1.244,0-2.487,0.205-3.693,0.622c-2.86,0.987-5.168,3.033-6.496,5.76C116.139,350.958,118.481,357.756,124.099,360.492z
		 M215.775,806.994c-0.97-2.871-2.997-5.195-5.708-6.541c-1.59-0.787-3.301-1.183-5.024-1.183c-1.217,0-2.438,0.198-3.624,0.597
		c-25.45,8.58-51.741,15.653-78.134,21.023c-6.123,1.244-10.09,7.237-8.846,13.36c0.905,4.453,4.366,7.926,8.819,8.85
		c1.502,0.304,3.035,0.304,4.545,0c27.276-5.549,54.479-12.866,80.853-21.75C214.577,819.354,217.772,812.912,215.775,806.994z
		 M181.107,716.295c1.886-2.369,2.742-5.328,2.404-8.336s-1.829-5.708-4.195-7.599c-2.369-1.89-5.328-2.742-8.333-2.4
		c-26.679,3.001-53.852,4.355-80.808,4.016c-0.053,0-0.103,0-0.152,0c-2.97,0-5.773,1.137-7.903,3.217
		c-2.168,2.111-3.381,4.944-3.419,7.967c-0.057,4.548,2.594,8.675,6.747,10.516c1.403,0.62,2.898,0.943,4.442,0.962
		c27.854,0.335,55.985-1.05,83.622-4.153C176.52,720.147,179.216,718.66,181.107,716.295z M83.805,492.143
		c1.209,0.943,2.578,1.62,4.069,2.014c26.926,7.093,54.555,12.565,82.131,16.264c6.199,0.842,11.911-3.531,12.744-9.726
		c0.399-3.004-0.392-5.984-2.229-8.39c-1.837-2.405-4.499-3.951-7.5-4.353c-26.622-3.565-53.327-8.852-79.366-15.714
		c-0.966-0.253-1.94-0.378-2.909-0.378c-1.981,0-3.932,0.523-5.686,1.546c-2.617,1.523-4.48,3.976-5.252,6.904
		C78.648,484.705,80.215,489.35,83.805,492.143z M1129.415,593.071c-1.978-2.291-4.731-3.674-7.751-3.894l-78.256-5.712
		c-0.281-0.021-0.563-0.03-0.844-0.03c-3.544,0-6.876,1.651-9.036,4.52c-1.312,1.742-2.088,3.813-2.244,5.986
		c0,0.002,0,0.002,0,0.004c-0.224,3.018,0.745,5.942,2.723,8.232c1.978,2.289,4.731,3.674,7.751,3.894l78.26,5.712
		c3.061,0.228,5.944-0.749,8.234-2.727c2.289-1.981,3.674-4.735,3.891-7.751C1132.366,598.285,1131.396,595.361,1129.415,593.071z
		 M1016.49,488.593c0.339,3.01,1.829,5.708,4.195,7.597c2.369,1.892,5.332,2.744,8.333,2.402c26.701-3.001,53.87-4.349,80.808-4.014
		c3.084,0.021,5.887-1.105,8.055-3.217c2.168-2.115,3.381-4.946,3.419-7.973c0.057-4.545-2.59-8.669-6.747-10.51
		c-1.403-0.62-2.898-0.945-4.442-0.964c-2.784-0.034-5.571-0.053-8.363-0.053c-25.093,0-50.368,1.411-75.259,4.204
		C1020.278,476.764,1015.794,482.385,1016.49,488.593z M1116.195,704.41c-1.206-0.943-2.578-1.62-4.069-2.016
		c-26.895-7.085-54.528-12.558-82.131-16.266c-0.51-0.065-1.012-0.099-1.514-0.099c-5.587,0-10.466,4.142-11.23,9.827
		c-0.399,3.004,0.392,5.982,2.229,8.39c1.837,2.407,4.499,3.951,7.5,4.351c26.656,3.575,53.361,8.861,79.37,15.718
		c2.925,0.768,5.982,0.354,8.591-1.168c2.616-1.525,4.48-3.978,5.252-6.903C1121.352,711.849,1119.785,707.202,1116.195,704.41z
		 M274.578,908.004c0.076-3.027-1.034-5.902-3.126-8.093c-2.221-2.331-5.206-3.506-8.199-3.506c-2.814,0-5.629,1.038-7.823,3.126
		l-58.366,55.639c-2.191,2.088-3.434,4.902-3.506,7.929c-0.072,3.027,1.038,5.902,3.126,8.093c1.593,1.673,3.632,2.803,5.902,3.274
		c3.655,0.753,7.431-0.327,10.124-2.898l58.362-55.635C273.263,913.845,274.506,911.031,274.578,908.004z M352.998,973.527
		c-1.582-0.783-3.29-1.179-5.005-1.179c-1.225,0-2.449,0.198-3.64,0.601c-2.868,0.974-5.187,3.004-6.53,5.724l-36.414,73.745
		c-1.339,2.712-1.544,5.788-0.57,8.656c0.97,2.868,3.001,5.184,5.716,6.522c0.879,0.433,1.795,0.753,2.723,0.939
		c5.062,1.05,10.169-1.457,12.455-6.081l36.414-73.753C360.912,983.099,358.6,976.292,352.998,973.527z M617.034,1136.922
		l-15.011-96.351c-0.871-5.583-5.708-9.588-11.196-9.588c-0.578,0-1.16,0.046-1.749,0.137c-2.989,0.468-5.617,2.069-7.405,4.514
		c-1.784,2.442-2.51,5.438-2.042,8.428l15.011,96.351c0.723,4.647,4.301,8.409,8.903,9.359c1.32,0.266,2.674,0.301,4.043,0.091
		C613.756,1148.902,617.996,1143.095,617.034,1136.922z M741.6,1126.449l-32.573-97.047c-1.594-4.731-6.024-7.728-10.763-7.728
		c-1.19,0-2.4,0.19-3.59,0.586c-5.925,1.989-9.127,8.428-7.142,14.349l32.573,97.051c1.282,3.814,4.522,6.686,8.466,7.503
		c1.947,0.396,3.989,0.278,5.887-0.361C740.383,1138.813,743.585,1132.374,741.6,1126.449z M795.6,992.06
		c-1.708-2.502-4.286-4.191-7.264-4.75c-0.707-0.133-1.419-0.202-2.122-0.202c-2.255,0-4.461,0.677-6.363,1.981
		c-5.161,3.525-6.492,10.592-2.97,15.749l57.183,83.759c1.662,2.442,4.172,4.111,7.066,4.712c3.031,0.628,6.119,0.011,8.682-1.742
		c2.502-1.708,4.187-4.282,4.75-7.26c0.559-2.974-0.072-5.99-1.78-8.489L795.6,992.06z M879.153,940.901
		c-2.202-2.145-5.066-3.214-7.922-3.214c-2.947,0-5.891,1.137-8.104,3.408c-2.115,2.164-3.259,5.024-3.225,8.051
		c0.038,3.027,1.251,5.861,3.419,7.975c22.815,22.267,44.481,46.166,64.401,71.03c1.647,2.057,3.97,3.484,6.545,4.016
		c3.313,0.677,6.739-0.137,9.386-2.255c2.362-1.89,3.845-4.59,4.18-7.599c0.331-3.008-0.529-5.967-2.419-8.329
		C924.95,988.431,902.656,963.844,879.153,940.901z M1021.411,934.747c-0.434-2.993-2.008-5.644-4.431-7.454
		c-23.617-17.65-48.619-33.908-74.316-48.318c-1.715-0.966-3.605-1.46-5.522-1.46c-1.023,0-2.057,0.141-3.073,0.426
		c-2.925,0.821-5.351,2.731-6.834,5.374c-3.058,5.45-1.107,12.371,4.343,15.433c24.826,13.919,48.991,29.634,71.825,46.698
		c1.35,1.008,2.856,1.689,4.488,2.023c4.297,0.905,8.758-0.802,11.379-4.313C1021.084,940.729,1021.845,937.744,1021.411,934.747z
		 M1076.677,825.473c-27.222-11.322-55.449-20.951-83.9-28.622c-0.985-0.266-1.981-0.399-2.974-0.399c-1.947,0-3.872,0.51-5.61,1.51
		c-2.635,1.514-4.522,3.955-5.313,6.884c-0.787,2.925-0.388,5.978,1.122,8.603c1.51,2.62,3.951,4.499,6.872,5.29
		c27.485,7.408,54.768,16.714,81.093,27.656c1.548,0.647,3.176,0.924,4.841,0.863c4.377-0.19,8.291-2.928,9.972-6.971
		c1.164-2.795,1.168-5.876,0.015-8.675C1081.644,828.813,1079.469,826.633,1076.677,825.473z"/>
	<path fill="#D8AEC8" d="M572.885,862.23c-6.739,1.742-13.041,2.609-18.909,2.609c-30.432,0-48.797-24.34-55.099-73.03
		c-3.48-26.081-4.351-46.622-2.609-61.617c2.172-19.342,7.825-37.495,16.954-54.449c8.477-15.429,18.146-27.272,29.017-35.536
		c-20.867,22.609-31.299,56.624-31.299,102.048c0,22.168,2.822,42.168,8.477,59.99C530.065,836.369,547.89,856.362,572.885,862.23z
		 M449.87,625.035l-18.259,7.496l-23.147,41.081l3.586,10.432C429.004,657.962,441.606,638.292,449.87,625.035z M395.096,833.04
		c0,0.871-0.382-6.465-1.141-22.008c-0.764-15.536-1.466-31.022-2.118-46.458c-1.091-17.604-2.934-29.017-5.543-34.232
		c-0.871,1.088-2.883,2.662-6.032,4.727c-3.153,2.065-5.165,3.86-6.032,5.378c0.194,10.219,1.274,26.952,3.231,50.208
		c1.757,21.305,2.637,37.818,2.637,49.558c0,5.435,0,10.759,0,15.973C390.095,854.018,395.096,846.298,395.096,833.04z
		 M430.634,852.276c-7.612,0.65-12.934,0.977-15.975,0.977c-6.522,0-11.85-0.761-15.977-2.282c-0.437,1.742-2.067,3.586-4.891,5.541
		c-2.826,1.955-4.457,3.807-4.889,5.541c8.038,0.221,16.188,0.384,24.452,0.491c8.257,0.11,15.21,1.034,20.866,2.772
		c2.388-1.304,4.67-3.37,6.846-6.195c0.215-0.213,2.063-2.609,5.543-7.173C442.91,851.736,437.588,851.842,430.634,852.276z
		 M471.061,666.766c13.693-19.776,23.147-34.448,28.365-44.013h-36.842c-6.739,8.473-14.997,20.757-24.777,36.84
		c-3.48,6.518-7.066,13.041-10.759,19.559c-4.566,7.173-9.567,12.611-14.997,16.304c-4.351-3.913-7.825-9.671-10.434-17.281
		c-2.175-6.518-4.349-13.041-6.52-19.559c-9.567-22.172-14.889-35.102-15.975-38.799c-2.175,0.65-4.676,0.977-7.498,0.977
		c-2.396,0-6.144-0.377-11.25-1.141c-5.109-0.757-8.857-1.141-11.248-1.141c-3.046,0-5.762,0.437-8.15,1.305v1.955
		c5.216,14.132,10.972,26.736,17.279,37.822c8.258,16.521,14.345,28.801,18.257,36.84c1.519,2.826,5.431,8.044,11.738,15.65
		c4.997,5.868,8.038,10.869,9.127,14.996c1.519,12.828,2.39,22.716,2.609,29.668c2.609,38.259,4.239,67.276,4.891,87.052
		c9.561,2.175,23.8,1.848,42.709-0.981c-2.607-30.425-4.564-53.247-5.868-68.463c-1.304-22.822-1.955-34.992-1.955-36.517
		c0-11.082,0.977-20.426,2.934-28.036c1.517-5.651,5.541-12.93,12.061-21.845C460.189,681.005,465.626,673.938,471.061,666.766z
		 M872.066,623.076c-3.261,0-10-0.323-20.215-0.977c-8.262-0.434-15.216-0.54-20.866-0.327c-0.871,0.221-1.303,1.419-1.303,3.586
		c0.192,4.567,0.783,17.175,1.761,37.822c0.78,17.391,1.173,31.41,1.173,42.058c0,49.775-10,78.031-29.995,84.767
		c-4.132,1.304-7.825,1.955-11.086,1.955c-15.216,0-25.216-12.93-29.993-38.799c-2.175-11.082-3.698-33.034-4.566-65.854
		c-0.652-23.256-1.523-44.667-2.607-64.23c-2.175,0.437-8.371,0.871-18.584,1.304c-7.825,0.221-13.261,1.304-16.302,3.259
		c-1.957,4.784-3.261,10.329-3.913,16.631c-0.219,4.13-0.219,10.105,0,17.932c0.215,8.473,0.215,14.562,0,18.255
		c0,7.61,0,15.323,0,23.149c0,51.079,6.41,92.483,19.236,124.216c13.693,6.522,27.386,9.675,41.081,9.454
		c16.081-0.213,33.361-5.431,51.838-15.65c17.167-9.34,29.124-19.342,35.863-29.995c9.129-13.908,13.693-35.536,13.693-64.877
		c0-11.299-0.871-28.801-2.609-52.494C872.931,650.576,872.066,633.512,872.066,623.076z M768.389,847.058
		c-18.257,0-31.737-4.453-40.427-13.368c-4.784-4.777-9.129-18.365-13.041-40.754c-6.089-35.642-9.129-73.137-9.129-112.48
		c0-13.041,0.325-25.538,0.977-37.491c-7.61,3.48-12.176,12.824-13.693,28.036c-0.652,5.218-0.764,16.521-0.325,33.908
		c0,2.609,1.192,17.498,3.586,44.663c0.652,15.65,1.192,31.413,1.63,47.276c1.086,18.259,3.693,31.353,7.825,39.286
		c4.126,7.937,11.518,14.783,22.17,20.54c10.647,5.762,20.753,8.641,30.32,8.641c17.819,0.217,36.949-5.431,57.381-16.954
		c19.124-10.865,31.187-21.951,36.188-33.254c-5.653,4.564-14.564,10.759-26.734,18.582
		C807.292,842.605,788.383,847.058,768.389,847.058z M600.598,670.201c-5.216,0-10.978,3.697-17.279,11.086
		c15.863,7.389,23.8,25.214,23.8,53.467c0,22.609-4.351,42.929-13.041,60.967c6.733-5.218,12.716-12.93,17.931-23.149
		c6.083-11.949,9.669-24.883,10.759-38.795c1.084-14.999-0.327-29.017-4.239-42.058
		C614.398,677.374,608.423,670.201,600.598,670.201z M380.099,726.429c2.39-1.305,4.126-2.715,5.218-4.24
		c-9.782-12.387-19.675-28.363-29.67-47.926c-8.044-17.167-16.194-34.338-24.452-51.509c-6.306,3.91-9.454,8.8-9.454,14.668
		c0,4.351,3.149,12.828,9.454,25.431c6.302,12.607,12.603,25.214,18.911,37.818c8.038,14.786,16.081,24.674,24.125,29.672
		C374.664,729.688,376.621,728.383,380.099,726.429z M660.913,694.001c0,9.569-0.546,20.867-1.63,33.908
		c-2.394,26.302-5.98,47.166-10.759,62.595c-4.784,15.437-11.738,28.584-20.866,39.449c-13.693,16.521-29.995,24.781-48.906,24.781
		c-6.958,0-13.259-1.411-18.909-4.24c-5.655-2.822-11.63-9.127-17.932-18.909c-6.087-9.127-10.652-18.144-13.693-27.059
		c-6.52-18.471-9.781-40.316-9.781-65.535c0-35.863,6.954-63.899,20.866-84.113c15.212-22.385,36.515-33.581,63.903-33.581
		c4.564,0,9.236,0.327,14.018,0.977C646.349,625.321,660.913,649.227,660.913,694.001z M630.918,727.255
		c0-12.82-1.742-25.104-5.216-36.84c-3.698-13.474-8.696-21.845-14.997-25.104c-4.132-2.172-8.044-3.259-11.736-3.259
		c-7.173,0-13.805,4.237-19.888,12.714c-3.046,4.351-6.96,11.957-11.736,22.822c-6.741,15.216-10.109,32.064-10.109,50.535
		c0,31.737,8.692,51.729,26.083,59.99c15.429-4.347,27.492-14.999,36.188-31.953C627.113,761.384,630.918,745.08,630.918,727.255z
		 M825.117,713.061c0-11.086-0.764-26.679-2.282-46.785c-1.523-20.099-2.394-33.304-2.609-39.613
		c-3.698,5.005-9.127,12.717-16.3,23.149c2.822,23.693,4.239,49.775,4.239,78.244c0,24.564-1.417,42.172-4.239,52.817
		C818.051,772.396,825.117,749.795,825.117,713.061z"/>
	<path fill="#445CA0" d="M309.422,318.747c-5.375-1.797-8.263-4.995-2.803-9.07c4.502-3.36,13.91-2.841,19.157-3.145
		c15.16-0.879,30.405,0.04,45.561,0.582c8.325,0.298,27.058-1.859,33.417,4.833c11.407,12.003-13.648,10.544-18.835,10.424
		c-3.813-0.088-12.847-1.595-16.499,0c-4.956,2.165-1.708,21.243-1.492,26.861c1.134,29.393,1.754,58.658,0.917,88.069
		c-0.749,26.305-3.111,53.08-2.12,79.39c0.302,8.015,0.64,16.069,0.927,24.104c0.355,9.953,1.301,15.211-11.408,14.697
		c-12.076-0.489-7.718-23.832-7.897-32.477c-0.291-14.036-0.705-27.864,0.313-41.877c1.832-25.199,1.019-52.398,1.257-78.146
		c0.224-24.23-0.241-48.391-0.982-72.601c-0.285-9.328,0.915-8.967-8.591-9.3C330.182,320.736,319.353,320.963,309.422,318.747z
		 M426.473,417.665c-1.901-33.009-6.65-68.612-2.229-101.515c0.601-4.474,0.75-8.367,5.691-9.276
		c6.317-1.162,11.009,4.38,12.281,9.567c1.533,6.251-0.781,14.733-0.797,21.356c-0.019,7.917,0.189,15.84,0.391,23.753
		c0.848,33.269,4.546,66.521,5.023,99.764c0.115,8.037-0.098,7.349,8.326,6.287c6.706-0.845,13.44-1.725,20.114-2.786
		c10.569-1.681,20.972-2.308,31.655-2.308c-4.761-21.802-2.962-46.288-3.628-68.254c-0.551-18.182-0.087-36.503,0.663-54.688
		c0.288-6.98-0.315-15.322,1.923-22.012c2.086-6.237,9.597-8.021,13.9-2.141c5.757,7.867,2.175,28.56,1.902,37.736
		c-0.525,17.626-1.156,35.456-0.273,53.08c1.224,24.421,2.94,48.828,4.224,73.115c0.847,16.019,2.161,32.073,2.062,48.122
		c-0.038,6.153,1.365,18.222-2.392,23.618c-2.43,3.49-10.105,4.195-13.621,1.526c-3.629-2.756-2.187-10.56-2.041-14.754
		c0.299-8.557,0.721-16.992,0.247-25.556c-0.272-4.914-0.755-9.808-1.133-14.714c-0.361-4.672,1.055-14.655-1.088-19.174
		c-3.394-7.159-34.247,1.7-42.476,3.077c-4.666,0.781-11.343-0.098-15.642,2.289c-3.779,2.099-2.502,3.482-2.26,8.822
		c0.467,10.291,1.353,20.658,1.6,30.911c0.193,8.023,1.431,18.287-0.62,26.174c-1.346,5.176-8.446,8.668-13.558,4.159
		c-4.653-4.104-3.063-17.193-3.41-22.603c-0.436-6.806-0.905-13.607-1.154-20.423C429.02,479.849,426.473,448.631,426.473,417.665z
		 M548.858,497.462c-2.254-29.573-4.235-58.495-4.33-88.217c-0.053-16.374-0.238-32.771,0.068-49.143
		c0.231-12.325-0.081-27.36,8.216-37.401c12.029-14.557,44.644-15.291,61.019-7.337c29.521,14.34,27.648,44.279,28.292,72.812
		c0.706,31.223,2.536,62.476,2.631,93.698c0.061,20.019-1.091,40.662,1.18,60.603c0.45,3.954,1.764,7.092-1.346,10.309
		c-4.924,5.092-11.88,2.949-14.222-2.675c-3.897-9.359-1.959-23.953-2.169-33.959c-0.151-7.223,2.174-21.622-0.538-28.698
		c-1.341-3.5-0.053-2.003-4.756-2.803c-5.513-0.939-9.139-1.434-14.648-1.04c-12.229,0.874-26.145,0.008-38.023,3.238
		c-5.956,1.62-5.296,4.165-5.043,10.241c0.336,8.082,0.969,16.128,0.793,24.262c-0.138,6.38,1.529,22.512-2.91,27.473
		c-4.435,4.957-8.272,0.507-9.61-3.864C549.006,530.394,550.631,512.555,548.858,497.462z M618.277,335.683
		c-1.079-1.855-1.961-3.226-2.157-3.42c-4.486-4.412-10.676-6.109-16.732-6.69c-9.286-0.891-23.553-0.811-31.139,5.479
		c-6.87,5.697-5.285,17.32-5.602,25.284c-0.526,13.2-0.792,26.414-1.01,39.621c-0.221,13.371-0.252,26.734-0.057,40.106
		c0.093,6.417,0.125,12.842,0.333,19.257c0.078,2.397-0.843,13.866,1.398,15.762c3.055,2.584,21.087-1.826,25.974-2.014
		c12.913-0.496,25.52,1.022,38.325,1.022c0-22.158-1.455-44.416-2.065-66.575c-0.545-19.789,1.526-42.532-4.174-61.688
		C620.747,340.377,619.744,338.206,618.277,335.683z M777.965,528.784c0,9.973,5.605,22.882-7.219,25.977
		c-11.494,2.773-10.328-9.461-11.258-17.885c-1.461-13.231-1.785-26.434-2.72-39.7c-0.793-11.24-6.752-17.867-13.22-26.731
		c-23.539-32.258-37.942-71.188-58.237-105.208c0,18.349,2.294,36.722,2.307,55.134c0.009,13.518,0,27.036,0,40.554
		c0,17.064,0.093,34.127,0.643,51.184c0.343,10.644,3.216,23.084,1.831,33.655c-0.725,5.534-7.782,13.239-14.015,8.41
		c-6.066-4.7-4.634-20.514-5.054-27.349c-0.837-13.612-0.88-27.247-0.88-40.879c0-25.9,0.192-51.81-0.085-77.709
		c-0.242-22.571-2.536-45.007-4.057-67.512c-0.411-6.083-5.136-24.072-1.627-29.158c1.941-2.814,8.815-3.863,11.957-2.96
		c5.127,1.473,6.527,6.527,8.908,11.184c12.576,24.606,23.602,49.787,36.817,74.142c11.246,20.726,21.126,42.694,34.199,62.311
		c-1.521-32.968-1.879-66.001-3.712-98.958c-0.844-15.177-1.799-30.173-3.661-45.238c-0.892-7.214-0.705-13.585,8.723-13.415
		c7.94,0.143,9.064,5.967,10.151,12.611c5.403,33.023,3.961,67.864,5.653,101.25C775.372,451.27,773.963,490.121,777.965,528.784z
		 M798.241,554.667c-6.817-4.802-2.753-28.134-2.55-35.551c0.41-15.021,0.868-30.049,1.396-45.066
		c0.943-26.784,2.253-53.606,1.666-80.398c-0.383-17.493,0.333-34.995,0.311-52.485c-0.007-5.802-3.724-38.112,10.263-25.45
		c7.944,7.192,5.388,25.999,5.478,35.648c0.163,17.443,0.069,34.888,0.14,52.331c0.055,13.446-1.131,27.695,0.937,41.006
		c8.889-5.892,15.753-12.933,22.585-20.771c8.262-9.479,12.745-18.144,13.746-19.99c5.665-10.443,8.186-19.2,10.095-25.98
		c6.745-23.956,7.244-36.754,8.638-49.983c0.391-3.713-0.224-12.668,2.884-15.578c4.368-4.089,9.064,0.059,10.944,4.1
		c4.823,10.372,0.701,21.601-0.209,32.18c-2.463,28.636-11.717,57.132-28.456,80.524c-3.02,4.22-12.318,12.899-10.963,16.406
		c0.383,0.993,5.786,3.848,6.896,4.873c2.326,2.149,4.344,4.619,6.256,7.135c4.777,6.284,8.617,13.305,11.66,20.573
		c5.271,12.59,7.904,25.227,10.881,38.392c1.608,7.11,9.03,31.935,0.989,37.426c-4.255,2.906-10.719-1.812-12.567-5.549
		c-2.67-5.4-2.003-14.264-2.889-20.172c-1.407-9.381-3.13-19.623-9.436-39.898c0,0-2.251-7.236-11.503-24.929
		c0,0-4.188-8.008-9.693-9.324c-0.953-0.228-1.847-0.115-1.848-0.115c-0.911,0.316-2.295,0.8-3.974,1.402
		c-8.5,3.048-12.779,4.602-14.198,6.093c-2.508,2.634-1.122,5.654-1.731,14.936c-0.53,8.068-0.85,16.15-1.132,24.23
		c-0.263,7.539-0.565,15.072-0.895,22.609c-0.383,8.759,0.503,18.714-1.196,27.314c-0.493,2.495,0.493,3.098-1.585,4.581
		C807.68,556.257,799.584,555.632,798.241,554.667z M483.124,664.484c12.822-17.821,21.843-33.364,27.061-46.622
		c-4.132-1.959-9.781-2.936-16.954-2.936c-1.957,0-7.937,0.221-17.931,0.654c-7.61,0.437-13.912,0.437-18.909,0l-26.736,9.778
		l-23.8,40.103c-7.61-21.08-15.323-37.707-23.147-49.881c-4.784,0.437-11.411,0-19.888-1.304
		c-9.127-1.521-15.435-2.282-18.909-2.282c-3.913,0-7.23,0.487-9.943,1.464c-2.721,0.981-6.903,4.841-12.552,11.577
		c-4.566,5.214-6.847,10.542-6.847,15.973c0,4.784,1.844,10.652,5.543,17.608c3.693,6.956,7.386,13.805,11.084,20.537
		c3.913,9.782,9.994,23.043,18.259,39.776c4.779,4.13,10.107,10.325,15.975,18.586c0.652,2.392,0.865,5.651,0.652,9.778
		c-0.439,5.438-0.652,8.591-0.652,9.454c1.304,10.873,2.934,27.279,4.891,49.231l1.304,33.581
		c0.213,12.828,1.411,22.389,3.586,28.69c5.429,1.959,12.822,2.719,22.168,2.282c11.738-0.434,19.124-0.54,22.17-0.323
		c1.519,0.217,4.453,1.194,8.804,2.932c3.474,1.304,6.302,1.738,8.475,1.304c3.042-0.434,7.062-3.423,12.063-8.964
		c4.997-5.545,7.931-10.052,8.804-13.531c0.432-2.822,0.213-7.5-0.652-14.018c-1.091-9.565-1.744-15.106-1.957-16.631
		c-1.09-13.041-2.175-25.967-3.261-38.795c-1.303-16.954-1.955-30.755-1.955-41.404c0-12.824,0.977-23.583,2.934-32.277
		C456.278,702.522,466.385,687.744,483.124,664.484z M431.611,632.531l18.259-7.496c-8.264,13.258-20.866,32.927-37.82,59.009
		l-3.586-10.432L431.611,632.531z M350.106,700.67c-6.307-12.603-12.609-25.211-18.911-37.818
		c-6.306-12.603-9.454-21.08-9.454-25.431c0-5.868,3.149-10.759,9.454-14.668c8.258,17.171,16.408,34.342,24.452,51.509
		c9.994,19.563,19.888,35.54,29.67,47.926c-1.091,1.525-2.828,2.936-5.218,4.24c-3.478,1.955-5.435,3.259-5.868,3.913
		C366.187,725.345,358.143,715.457,350.106,700.67z M377.461,790.655c-1.957-23.256-3.037-39.989-3.231-50.208
		c0.867-1.517,2.879-3.313,6.032-5.378c3.149-2.065,5.161-3.64,6.032-4.727c2.609,5.214,4.452,16.627,5.543,34.232
		c0.652,15.437,1.354,30.923,2.118,46.458c0.759,15.543,1.141,22.879,1.141,22.008c0,13.258-5.001,20.978-14.997,23.146
		c0-5.214,0-10.538,0-15.973C380.099,828.473,379.218,811.96,377.461,790.655z M441.066,859.122
		c-2.175,2.826-4.457,4.891-6.846,6.195c-5.655-1.738-12.609-2.662-20.866-2.772c-8.264-0.106-16.414-0.27-24.452-0.491
		c0.432-1.734,2.063-3.586,4.889-5.541c2.824-1.955,4.453-3.799,4.891-5.541c4.126,1.521,9.454,2.282,15.977,2.282
		c3.041,0,8.363-0.327,15.975-0.977c6.954-0.434,12.276-0.54,15.975-0.327C443.129,856.513,441.281,858.909,441.066,859.122z
		 M442.697,709.801c-1.957,7.61-2.934,16.954-2.934,28.036c0,1.525,0.65,13.695,1.955,36.517
		c1.304,15.216,3.261,38.038,5.868,68.463c-18.909,2.829-33.148,3.157-42.709,0.981c-0.652-19.776-2.282-48.793-4.891-87.052
		c-0.219-6.952-1.09-16.84-2.609-29.668c-1.09-4.126-4.13-9.127-9.127-14.996c-6.307-7.606-10.219-12.824-11.738-15.65
		c-3.911-8.04-9.998-20.32-18.257-36.84c-6.307-11.086-12.063-23.689-17.279-37.822v-1.955c2.388-0.867,5.104-1.305,8.15-1.305
		c2.39,0,6.138,0.384,11.248,1.141c5.106,0.764,8.854,1.141,11.25,1.141c2.822,0,5.322-0.327,7.498-0.977
		c1.086,3.697,6.408,16.627,15.975,38.799c2.172,6.518,4.345,13.041,6.52,19.559c2.609,7.61,6.083,13.368,10.434,17.281
		c5.431-3.693,10.432-9.131,14.997-16.304c3.693-6.518,7.279-13.041,10.759-19.559c9.78-16.083,18.038-28.367,24.777-36.84h36.842
		c-5.218,9.565-14.672,24.237-28.365,44.013c-5.435,7.173-10.871,14.239-16.302,21.191
		C448.238,696.871,444.215,704.15,442.697,709.801z M610.705,665.31c-4.132-2.172-8.044-3.259-11.736-3.259
		c-7.173,0-13.805,4.237-19.888,12.714c-3.046,4.351-6.96,11.957-11.736,22.822c-6.741,15.216-10.109,32.064-10.109,50.535
		c0,31.737,8.692,51.729,26.083,59.99c15.429-4.347,27.492-14.999,36.188-31.953c7.606-14.775,11.411-31.079,11.411-48.904
		c0-12.82-1.742-25.104-5.216-36.84C622.004,676.94,617.007,668.57,610.705,665.31z M582.34,797.676
		c-11.955-8.907-17.931-25.644-17.931-50.208c0-25.861,5.977-45.641,17.931-59.336c11.738,8.914,17.606,25.214,17.606,48.904
		C599.946,762.467,594.078,782.681,582.34,797.676z M622.768,733.777c-1.09,13.912-4.676,26.846-10.759,38.795
		c-5.216,10.219-11.198,17.932-17.931,23.149c8.69-18.038,13.041-38.358,13.041-60.967c0-28.253-7.937-46.078-23.8-53.467
		c6.302-7.389,12.063-11.086,17.279-11.086c7.825,0,13.799,7.173,17.932,21.518C622.441,704.76,623.852,718.778,622.768,733.777z
		 M614.943,613.798c-31.952-2.168-58.252,5.218-78.899,22.172c-12.176,9.998-22.716,24.564-31.624,43.686
		c-9.129,20-14.239,40.427-15.324,61.294c-0.65,13.041,0.761,31.9,4.239,56.567c3.474,24.671,9.017,42.545,16.629,53.631
		c10.865,16.087,27.818,23.906,50.859,23.473c6.735-0.213,16.408-3.586,29.017-10.109c6.735-3.039,15.756-7.713,27.061-14.018
		c26.734-18.038,43.467-55.422,50.208-112.153c1.955-16.954,2.934-31.512,2.934-43.686
		C670.042,643.142,651.672,616.194,614.943,613.798z M553.976,864.839c-30.432,0-48.797-24.34-55.099-73.03
		c-3.48-26.081-4.351-46.622-2.609-61.617c2.172-19.342,7.825-37.495,16.954-54.449c8.477-15.429,18.146-27.272,29.017-35.536
		c-20.867,22.609-31.299,56.624-31.299,102.048c0,22.168,2.822,42.168,8.477,59.99c10.647,34.125,28.472,54.118,53.467,59.986
		C566.146,863.971,559.845,864.839,553.976,864.839z M659.284,727.909c-2.394,26.302-5.98,47.166-10.759,62.595
		c-4.784,15.437-11.738,28.584-20.866,39.449c-13.693,16.521-29.995,24.781-48.906,24.781c-6.958,0-13.259-1.411-18.909-4.24
		c-5.655-2.822-11.63-9.127-17.932-18.909c-6.087-9.127-10.652-18.144-13.693-27.059c-6.52-18.471-9.781-40.316-9.781-65.535
		c0-35.863,6.954-63.899,20.866-84.113c15.212-22.385,36.515-33.581,63.903-33.581c4.564,0,9.236,0.327,14.018,0.977
		c29.124,3.046,43.688,26.952,43.688,71.726C660.913,703.569,660.367,714.868,659.284,727.909z M822.738,613.622
		c-1.299,4.564-5.686,10.325-13.153,17.281c-7.473,6.956-11.639,13.691-12.506,20.213c-0.652,3.48-0.555,9.021,0.295,16.627
		c0.989,10.219,1.58,16.414,1.778,18.582c0.791,20,1.188,33.258,1.188,39.776c0,29.561-3.556,48.904-10.658,58.035
		c-8.833-0.867-15.186-7.606-19.057-20.217c-2.801-9.34-4.421-22.929-4.849-40.75c-0.215-13.908-0.321-27.819-0.321-41.735
		c-1.957-40.427-3.153-62.595-3.586-66.508c-3.046,0.654-6.739,0.977-11.084,0.977c-6.089,0-12.176,0.114-18.259,0.327
		c-7.391,0.437-13.259,1.955-17.604,4.564c-3.48,2.175-8.753,7.663-15.813,16.464c-7.066,8.804-11.141,14.946-12.227,18.422
		c-2.17,6.739-3.259,15.437-3.259,26.081c0,1.091,1.09,17.391,3.259,48.904c2.172,36.084,3.695,62.599,4.566,79.553
		c1.732,20,9.434,35.757,23.107,47.272c13.02,11.307,29.076,16.954,48.17,16.954c11.717,0,23.438-2.282,35.156-6.846
		c33.412-12.603,55.654-29.778,66.723-51.513c13.887-27.169,20.829-63.355,20.829-108.566c0-25.211-2.276-56.51-6.821-93.898
		C854.791,613.842,836.167,613.842,822.738,613.622z M803.927,649.812c7.173-10.432,12.602-18.144,16.3-23.149
		c0.215,6.309,1.086,19.514,2.609,39.613c1.517,20.107,2.282,35.699,2.282,46.785c0,36.734-7.066,59.336-21.191,67.813
		c2.822-10.645,4.239-28.253,4.239-52.817C808.165,699.586,806.748,673.505,803.927,649.812z M815.663,848.363
		c-20.432,11.523-39.561,17.171-57.381,16.954c-9.567,0-19.673-2.879-30.32-8.641c-10.652-5.758-18.044-12.603-22.17-20.54
		c-4.132-7.933-6.739-21.027-7.825-39.286c-0.437-15.863-0.977-31.626-1.63-47.276c-2.394-27.165-3.586-42.054-3.586-44.663
		c-0.439-17.388-0.327-28.69,0.325-33.908c1.517-15.212,6.083-24.556,13.693-28.036c-0.652,11.953-0.977,24.45-0.977,37.491
		c0,39.343,3.041,76.837,9.129,112.48c3.911,22.389,8.256,35.977,13.041,40.754c8.69,8.914,22.17,13.368,40.427,13.368
		c19.995,0,38.904-4.453,56.729-13.368c12.17-7.823,21.08-14.018,26.734-18.582C846.85,826.411,834.787,837.497,815.663,848.363z
		 M863.589,791.632c-6.739,10.652-18.696,20.654-35.863,29.995c-18.477,10.219-35.757,15.437-51.838,15.65
		c-13.695,0.221-27.388-2.932-41.081-9.454c-12.826-31.733-19.236-73.137-19.236-124.216c0-7.827,0-15.539,0-23.149
		c0.215-3.693,0.215-9.782,0-18.255c-0.219-7.827-0.219-13.801,0-17.932c0.652-6.302,1.957-11.847,3.913-16.631
		c3.041-1.955,8.477-3.039,16.302-3.259c10.213-0.434,16.408-0.867,18.584-1.304c1.084,19.563,1.955,40.974,2.607,64.23
		c0.867,32.821,2.39,54.772,4.566,65.854c4.777,25.868,14.777,38.799,29.993,38.799c3.261,0,6.954-0.65,11.086-1.955
		c19.995-6.735,29.995-34.992,29.995-84.767c0-10.649-0.394-24.667-1.173-42.058c-0.977-20.647-1.569-33.254-1.761-37.822
		c0-2.168,0.432-3.366,1.303-3.586c5.649-0.213,12.603-0.107,20.866,0.327c10.215,0.654,16.954,0.977,20.215,0.977
		c0,10.436,0.865,27.5,2.607,51.186c1.738,23.693,2.609,41.195,2.609,52.494C877.282,756.096,872.718,777.724,863.589,791.632z"/>
</g>
</svg>
